<svg width="680" height="420" viewBox="0 0 680 420" xmlns="http://www.w3.org/2000/svg">
  <title>Logo EconSim - Simulador Económico</title>
  <desc>Logo profesional moderno para simulador económico</desc>

  <defs>
    
  </defs>

  
  <rect width="680" height="420" fill="#ffffff"></rect>

  
  <rect x="200" y="60" width="280" height="200" rx="28" fill="#0F52BA"></rect>

  
  <line x1="240" y1="100" x2="440" y2="100" stroke="#ffffff" stroke-width="0.5" opacity="0.12"></line>
  <line x1="240" y1="120" x2="440" y2="120" stroke="#ffffff" stroke-width="0.5" opacity="0.12"></line>
  <line x1="240" y1="140" x2="440" y2="140" stroke="#ffffff" stroke-width="0.5" opacity="0.12"></line>
  <line x1="240" y1="160" x2="440" y2="160" stroke="#ffffff" stroke-width="0.5" opacity="0.12"></line>
  <line x1="240" y1="180" x2="440" y2="180" stroke="#ffffff" stroke-width="0.5" opacity="0.12"></line>
  <line x1="240" y1="200" x2="440" y2="200" stroke="#ffffff" stroke-width="0.5" opacity="0.12"></line>
  <line x1="240" y1="220" x2="440" y2="220" stroke="#ffffff" stroke-width="0.5" opacity="0.12"></line>
  <line x1="260" y1="90" x2="260" y2="240" stroke="#ffffff" stroke-width="0.5" opacity="0.10"></line>
  <line x1="290" y1="90" x2="290" y2="240" stroke="#ffffff" stroke-width="0.5" opacity="0.10"></line>
  <line x1="320" y1="90" x2="320" y2="240" stroke="#ffffff" stroke-width="0.5" opacity="0.10"></line>
  <line x1="350" y1="90" x2="350" y2="240" stroke="#ffffff" stroke-width="0.5" opacity="0.10"></line>
  <line x1="380" y1="90" x2="380" y2="240" stroke="#ffffff" stroke-width="0.5" opacity="0.10"></line>
  <line x1="410" y1="90" x2="410" y2="240" stroke="#ffffff" stroke-width="0.5" opacity="0.10"></line>

  
  <rect x="248" y="200" width="18" height="40" rx="3" fill="#0F52BA" opacity="0.9"></rect>
  <rect x="274" y="182" width="18" height="58" rx="3" fill="#1A73E8" opacity="0.9"></rect>
  <rect x="300" y="168" width="18" height="72" rx="3" fill="#0F52BA" opacity="0.9"></rect>
  <rect x="326" y="152" width="18" height="88" rx="3" fill="#1A73E8" opacity="0.9"></rect>
  <rect x="352" y="138" width="18" height="102" rx="3" fill="#0F52BA" opacity="0.9"></rect>
  <rect x="378" y="120" width="18" height="120" rx="3" fill="#1A73E8" opacity="0.9"></rect>
  <rect x="404" y="105" width="18" height="135" rx="3" fill="#00C896" opacity="0.95"></rect>

  
  <polyline fill="none" stroke="#00C896" stroke-width="2.5" stroke-linecap="round" stroke-linejoin="round" points="257,198 283,180 309,165 335,150 361,135 387,118 413,103"></polyline>

  
  <circle cx="257" cy="198" r="4" fill="#00C896"></circle>
  <circle cx="283" cy="180" r="4" fill="#00C896"></circle>
  <circle cx="309" cy="165" r="4" fill="#00C896"></circle>
  <circle cx="335" cy="150" r="4" fill="#00C896"></circle>
  <circle cx="361" cy="135" r="4" fill="#00C896"></circle>
  <circle cx="387" cy="118" r="4" fill="#00C896"></circle>
  <circle cx="413" cy="103" r="5.5" fill="#00C896"></circle>
  <circle cx="413" cy="103" r="10" fill="#00C896" opacity="0.2"></circle>

  
  <line x1="234" y1="242" x2="446" y2="242" stroke="#ffffff" stroke-width="1.5" opacity="0.35" stroke-linecap="round"></line>
  <polygon points="446,238 454,242 446,246" fill="#ffffff" opacity="0.35"></polygon>

  
  <circle cx="228" cy="84" r="14" fill="#00C896" opacity="0.18"></circle>
  <text x="228" y="89" text-anchor="middle" font-family="Arial, sans-serif" font-size="15" font-weight="500" fill="#00C896">$</text>

  
  <rect x="440" y="72" width="22" height="22" rx="4" fill="none" stroke="#ffffff" stroke-width="1.2" opacity="0.3"></rect>
  <rect x="445" y="77" width="12" height="12" rx="2" fill="#ffffff" opacity="0.18"></rect>
  <line x1="448" y1="72" x2="448" y2="69" stroke="#ffffff" stroke-width="1" opacity="0.3"></line>
  <line x1="454" y1="72" x2="454" y2="69" stroke="#ffffff" stroke-width="1" opacity="0.3"></line>
  <line x1="462" y1="78" x2="465" y2="78" stroke="#ffffff" stroke-width="1" opacity="0.3"></line>
  <line x1="462" y1="84" x2="465" y2="84" stroke="#ffffff" stroke-width="1" opacity="0.3"></line>

  
  <text x="340" y="300" text-anchor="middle" class="logo-title">EconSim</text>

  
  <rect x="270" y="312" width="140" height="2" rx="1" fill="#00C896" opacity="0.7"></rect>
  <rect x="310" y="312" width="60" height="2" rx="1" fill="#1A73E8" opacity="0.5"></rect>

  
  <text x="340" y="345" text-anchor="middle" class="logo-sub">SIMULADOR ECONÓMICO</text>

  
  <circle cx="316" cy="368" r="4" fill="#00C896" opacity="0.9"></circle>
  <circle cx="340" cy="368" r="4" fill="#1A73E8" opacity="0.6"></circle>
  <circle cx="364" cy="368" r="4" fill="#0F52BA" opacity="0.4"></circle>
</svg>